<?xml version="1.0"?>
<svg xmlns="http://www.w3.org/2000/svg" xmlns:xlink="http://www.w3.org/1999/xlink" version="1.1" id="Capa_1" x="0px" y="0px" viewBox="0 0 512 512" style="enable-background:new 0 0 512 512;" xml:space="preserve" width="512px" height="512px" class=""><g><g>
	<g>
		<path d="M509.668,247.283c-3.542-6.452-7.327-12.725-11.326-18.825C449.961,133.861,361.39,65.716,256,65.716    c-105.672,0-194.099,68.407-242.345,162.748c-3.997,6.097-7.781,12.368-11.322,18.819c-3.111,5.666-3.111,12.432,0,18.097    c3.541,6.451,7.326,12.723,11.323,18.822c48.359,94.563,132.165,155.134,224.282,162.061c4.141,0.309,7.731-2.787,8.042-6.917    c0.311-4.131-2.786-7.731-6.917-8.042c-55.483-4.171-107.85-29.153-150.427-70.08c48.823,34.019,107.278,52.214,167.363,52.214    c59.993,0,118.466-18.144,167.362-52.215c-42.575,40.927-94.941,65.908-150.423,70.08c-4.131,0.311-7.227,3.911-6.916,8.042    c0.309,4.109,3.883,7.224,8.041,6.917c92.113-6.927,175.917-67.497,224.275-162.056c3.999-6.1,7.785-12.373,11.327-18.827    C512.777,259.714,512.777,252.949,509.668,247.283z M256,80.717c62.672,0,121.625,25.73,168.622,71.607    C375.219,117.506,316.192,99.225,256,99.225c-60.064,0-119.12,18.209-168.624,53.099C134.374,106.448,193.328,80.717,256,80.717z     M496.518,258.162C449.134,344.475,357.156,398.438,256,398.438c-102.476,0-193.775-55.128-240.518-140.276    c-0.629-1.145-0.629-2.513,0-3.659c47.368-86.288,139.377-140.275,240.517-140.275c106.132,0,195.719,58.674,240.518,140.275    C497.146,255.648,497.146,257.017,496.518,258.162z" data-original="#000000" class="active-path" data-old_color="#000000" fill="#839BA0"/>
	</g>
</g><g>
	<g>
		<path d="M256.002,168.17c-48.947,0-88.495,39.836-88.495,88.495c0,49.142,39.974,88.495,88.495,88.495    c49.01,0,88.494-39.893,88.494-88.495C344.497,207.446,304.431,168.17,256.002,168.17z M248.502,185.342v37    c-7.095-0.466-14.088-1.593-20.904-3.357C230.959,207.272,237.935,191.37,248.502,185.342z M223.18,190.947    c-4.315,7.238-7.494,15.246-9.835,23.305c-4.286-1.749-8.473-3.76-12.535-6.038C207.229,200.91,214.831,195.114,223.18,190.947z     M209.95,229.042c-1.121,6.472-1.848,13.215-2.153,20.121h-24.909c1.021-10.054,4.123-19.777,9.184-28.684    C197.825,223.803,203.798,226.669,209.95,229.042z M192.393,293.407c-5.086-8.77-8.429-18.674-9.505-29.243h24.908    c0.316,7.155,1.08,14.138,2.271,20.823C203.988,287.325,198.083,290.142,192.393,293.407z M201.244,305.616    c3.986-2.213,8.093-4.167,12.294-5.872c2.32,7.823,5.446,15.595,9.641,22.633C214.796,318.191,207.374,312.465,201.244,305.616z     M248.502,327.987c-10.492-5.985-17.29-21.339-20.704-32.95c6.752-1.735,13.679-2.843,20.704-3.305V327.987z M248.503,276.718    c-8.143,0.473-16.175,1.704-24.004,3.686c-0.829-5.043-1.42-10.563-1.692-16.24h25.696V276.718z M248.503,249.163h-25.696    c0.27-5.632,0.818-10.749,1.573-15.525c7.865,1.999,15.937,3.241,24.123,3.716V249.163z M319.933,220.48    c5.119,9.008,8.176,18.764,9.183,28.684h-24.908c-0.305-6.906-1.032-13.648-2.153-20.121    C308.208,226.67,314.18,223.803,319.933,220.48z M311.195,208.214c-4.062,2.279-8.249,4.29-12.535,6.039    c-2.336-8.041-5.513-16.052-9.836-23.306C297.332,195.201,304.818,200.959,311.195,208.214z M263.503,185.341    c8.187,4.675,16.036,16.677,20.903,33.643c-6.815,1.764-13.808,2.891-20.903,3.357V185.341z M263.502,237.355    c8.187-0.475,16.26-1.717,24.125-3.717c0.775,4.91,1.31,10.1,1.571,15.526h-25.696V237.355z M263.502,327.986v-36.255    c7.024,0.462,13.95,1.571,20.704,3.306C279.327,311.638,271.58,323.376,263.502,327.986z M263.502,276.718v-12.553h25.696    c-0.273,5.693-0.856,11.117-1.693,16.24C279.678,278.422,271.646,277.191,263.502,276.718z M288.825,322.377    c4.194-7.036,7.321-14.81,9.641-22.633c4.201,1.704,8.307,3.659,12.293,5.872C304.73,312.355,297.311,318.144,288.825,322.377z     M319.61,293.408c-5.69-3.265-11.594-6.082-17.674-8.42c1.191-6.685,1.955-13.668,2.271-20.824h24.908    C328.039,274.734,324.697,284.637,319.61,293.408z" data-original="#000000" class="active-path" data-old_color="#000000" fill="#839BA0"/>
	</g>
</g><g>
	<g>
		<path d="M366.769,266.759c-4.093-0.648-7.934,2.144-8.581,6.234c-8,50.496-50.976,87.146-102.187,87.146    c-57.055,0-103.473-46.418-103.473-103.473c0-57.055,46.418-103.473,103.473-103.473c51.212,0,94.187,36.65,102.187,87.146    c0.647,4.09,4.487,6.883,8.581,6.234c4.091-0.648,6.882-4.49,6.233-8.581c-4.364-27.552-18.466-52.806-39.705-71.109    c-21.47-18.502-48.921-28.69-77.296-28.69c-65.326,0-118.474,53.148-118.474,118.474S190.674,375.139,256,375.139    c28.376,0,55.827-10.188,77.296-28.69c21.24-18.304,35.341-43.557,39.705-71.109C373.65,271.249,370.859,267.407,366.769,266.759z    " data-original="#000000" class="active-path" data-old_color="#000000" fill="#839BA0"/>
	</g>
</g></g> </svg>
